<svg xmlns="http://www.w3.org/2000/svg" version="1.1" xmlns:xlink="http://www.w3.org/1999/xlink" width="250" height="250"><svg width="250" height="250" viewBox="0 0 250 250" fill="none" xmlns="http://www.w3.org/2000/svg">
<path d="M63.6978 8.15927C56.9807 9.41874 54.9235 9.92252 51.3131 11.14C32.9669 17.4793 17.9372 32.5509 8.23937 54.3397C-3.30573 80.3266 -2.71798 103.249 10.0026 125.374C15.8381 135.491 22.1774 143.426 39.768 162.612C55.5113 179.74 61.8086 187.927 70.0371 201.781C77.342 214.04 84.1851 229.615 85.7385 237.55C85.9064 238.348 86.2003 239.691 86.4102 240.489L86.788 242L91.2801 237.55C100.39 228.566 114.202 219.414 132.129 210.471C145.437 203.838 146.865 203.25 174.741 193.888C196.613 186.542 202.113 184.4 209.208 180.622C230.997 168.993 242.962 153.04 247.748 129.152C251.19 112.149 250.686 97.4134 246.236 83.5173C239.351 61.8545 221.719 46.1112 200.896 42.9205C195.48 42.0809 181.794 42.3328 177.302 43.3823C172.977 44.3479 167.562 46.2371 163.112 48.3362C154.211 52.5344 142.54 61.6026 136.033 69.4113C134.27 71.4684 132.633 73.1897 132.381 73.1897C132.129 73.1897 131.793 72.0561 131.625 70.6707C131.163 66.9763 128.14 55.2213 126.671 51.4429C125.076 47.2867 120.5 38.3025 118.275 34.9439C114.748 29.5702 107.443 22.0134 102.028 18.109C96.4859 14.1627 88.1315 10.5942 80.3228 8.87297C77.426 8.24323 65.9229 7.73945 63.6978 8.15927Z" fill="#90A084"></path>
</svg><style>@media (prefers-color-scheme: light) { :root { filter: none; } }
@media (prefers-color-scheme: dark) { :root { filter: none; } }
</style></svg>